<?xml version="1.0" encoding="UTF-8"?>
<svg id="Layer_1" xmlns="http://www.w3.org/2000/svg" version="1.1" viewBox="0 0 2000 1000">
  <!-- Generator: Adobe Illustrator 29.6.1, SVG Export Plug-In . SVG Version: 2.1.1 Build 9)  -->
  <defs>
    <style>
      .st0 {
        fill: #69a9dc;
      }

      .st1 {
        fill: #fff;
      }

      .st2 {
        fill: #fffeff;
      }

      .st3 {
        fill: #f6f4f5;
      }

      .st4 {
        fill: #4777bc;
      }

      .st5 {
        fill: #0b1928;
      }
    </style>
  </defs>
  <g>
    <path class="st5" d="M778.82,434.03v146.1h-31.15v-90.32c0-2.26,0-7.08,1.13-15.57-2.83,7.08-7.08,13.59-8.49,15.29l-54.93,73.05h-6.8l-54.93-73.33c-5.1-6.8-7.08-10.76-8.78-15.01l.85,15.57v90.32h-27.75v-146.1h27.75l68.81,88.34,67.39-88.34h26.9Z"/>
    <path class="st5" d="M930.57,434.03l83.81,146.1h-38.22l-17.27-31.71h-92.87l-16.71,31.71h-34.26l82.68-146.1h32.84ZM944.45,521.8l-31.71-59.46-32.85,59.46h64.56Z"/>
    <path class="st5" d="M1187.37,434.03c6.8,0,17.27.57,24.07,5.95,8.21,6.51,8.78,16.42,8.78,22.37v34.83c0,11.33-3.96,17.84-7.93,21.23-6.8,5.95-18.4,6.51-24.92,6.51h-19.82l67.39,55.21h-48.7l-58.9-55.21h-32v55.21h-33.98v-146.1h126ZM1095.35,458.94v41.06h77.87c2.26,0,6.8-.57,9.34-2.26,3.68-2.83,3.68-7.08,3.68-9.35v-17.84c0-2.26,0-6.51-3.68-9.35-2.83-2.26-8.49-2.26-9.91-2.26h-77.3Z"/>
    <path class="st5" d="M1356.68,580.13h-33.98v-119.49h-67.1v-26.62h168.19v26.62h-67.1v119.49Z"/>
    <path class="st5" d="M1614.9,434.03v24.92h-115.52v32.56h67.39v24.92h-67.39v37.09h116.94v26.62h-150.92v-146.1h149.5Z"/>
    <path class="st5" d="M1676.04,468.57c0-6.23,0-19.82,7.93-27.46,7.08-6.8,18.97-7.08,28.31-7.08h107.6c9.34,0,21.23.28,28.31,7.08,7.93,7.65,7.93,21.23,7.93,27.46v77.01c0,6.23,0,19.82-7.93,27.47-7.08,6.8-18.97,7.08-28.31,7.08h-107.6c-9.34,0-21.23-.28-28.31-7.08-7.93-7.65-7.93-21.24-7.93-27.47v-77.01ZM1822.15,553.52v-92.87h-112.13v92.87h112.13Z"/>
  </g>
  <g>
    <rect class="st5" x="143.88" y="315.93" width="380.68" height="368.15" rx="37.85" ry="37.85"/>
    <path class="st1" d="M466.88,388.86v43.44h-38.71v.1c-.97,0-1.94.35-2.71,1.06l-3.28,3.06c-.26.15-.52.34-.75.56-22.73,21.24-45.46,42.48-68.19,63.71-.68.63-1.57.98-2.49.98h-33.07c-.93,0-1.82-.35-2.49-.98-22.73-21.24-45.46-42.48-68.19-63.71-2.53-2.36-6.66-.58-6.67,2.88-.18,55.74-.37,115.73-.55,171.2,0,2.18-1.78,3.95-3.97,3.95h-29.81c-2.45,0-4.44-1.99-4.44-4.44v-221.81c0-2.19,1.78-3.97,3.97-3.97h36.64c.96,0,1.88.34,2.6.97,3.92,3.4,7.83,6.8,11.74,10.19,0,0,.02.01.02.02,25.49,22.12,50.97,44.24,76.46,66.36.37.32.79.57,1.23.73h.01c.44-.16.86-.41,1.23-.73,25.45-22.08,50.9-44.17,76.35-66.26.03-.03.06-.06.09-.08,0,0,.02-.01.02-.02,3.92-3.4,7.84-6.81,11.76-10.21.72-.63,1.64-.97,2.6-.97h36.64c2.19,0,3.96,1.77,3.96,3.97Z"/>
    <path class="st3" d="M346.92,501.77h-.25.25Z"/>
    <path class="st3" d="M321.76,501.77c-.08,0-.16,0-.24,0h0s.25,0,.25,0Z"/>
    <path class="st3" d="M423.65,436.03s-.02,0-.03,0h0s.03,0,.03,0Z"/>
    <path class="st2" d="M432.34,455.12h30.36c2.31,0,4.17,1.87,4.17,4.17v151.38c0,2.45-1.99,4.44-4.44,4.44h-29.81c-2.19,0-3.96-1.77-3.97-3.95-.16-49.1-.33-101.75-.49-151.85,0-2.31,1.86-4.18,4.17-4.18Z"/>
    <rect class="st0" x="371.96" y="504.17" width="36.92" height="110.93" rx="3.97" ry="3.97"/>
    <rect class="st4" x="315.76" y="549.23" width="36.92" height="65.87" rx="3.97" ry="3.97"/>
    <path class="st3" d="M423.65,436.03s-.02,0-.03,0h0s.03,0,.03,0Z"/>
    <path class="st3" d="M423.65,436.03s-.02,0-.03,0h0s.03,0,.03,0Z"/>
  </g>
</svg>