<?xml version="1.0" encoding="UTF-8"?>
<svg id="Layer_1" xmlns="http://www.w3.org/2000/svg" version="1.1" viewBox="0 0 1000 1000">
  <!-- Generator: Adobe Illustrator 29.6.1, SVG Export Plug-In . SVG Version: 2.1.1 Build 9)  -->
  <defs>
    <style>
      .st0 {
        fill: #69a9dc;
      }

      .st1 {
        fill: #fff;
      }

      .st2 {
        fill: #fffeff;
      }

      .st3 {
        fill: #f6f4f5;
      }

      .st4 {
        fill: #4777bc;
      }

      .st5 {
        fill: #0b1928;
      }
    </style>
  </defs>
  <rect class="st5" x="169.68" y="180.55" width="660.64" height="638.9" rx="65.68" ry="65.68"/>
  <path class="st1" d="M730.23,307.12v75.38h-67.17v.17c-1.69,0-3.37.6-4.7,1.85l-5.69,5.31c-.45.27-.9.59-1.3.97-39.45,36.85-78.89,73.72-118.34,110.57-1.17,1.1-2.72,1.7-4.32,1.7h-57.39c-1.61,0-3.15-.6-4.32-1.7-39.45-36.85-78.89-73.72-118.34-110.57-4.39-4.1-11.57-1-11.58,5.01-.32,96.74-.64,200.84-.96,297.1,0,3.79-3.09,6.86-6.89,6.86h-51.74c-4.25,0-7.7-3.45-7.7-7.7v-384.94c0-3.81,3.09-6.89,6.89-6.89h63.58c1.66,0,3.26.59,4.51,1.69,6.8,5.89,13.58,11.8,20.38,17.69,0,0,.03.02.04.03,44.23,38.39,88.46,76.77,132.69,115.16.65.56,1.38.99,2.14,1.27h.02c.76-.28,1.49-.71,2.14-1.27,44.17-38.33,88.33-76.66,132.49-114.99.05-.04.11-.1.16-.14,0,0,.03-.02.04-.03,6.81-5.9,13.61-11.81,20.42-17.72,1.25-1.09,2.85-1.69,4.51-1.69h63.59c3.8,0,6.88,3.08,6.88,6.89Z"/>
  <path class="st3" d="M522.05,503.07h-.43.43Z"/>
  <path class="st3" d="M478.38,503.07c-.14,0-.28,0-.42,0h0s.43,0,.43,0Z"/>
  <path class="st3" d="M655.2,388.99s-.03,0-.04,0h0s.04,0,.04,0Z"/>
  <path class="st2" d="M670.29,422.11h52.69c4,0,7.24,3.24,7.24,7.24v262.7c0,4.25-3.45,7.7-7.7,7.7h-51.74c-3.8,0-6.88-3.07-6.89-6.86-.29-85.21-.57-176.58-.85-263.53-.01-4.01,3.23-7.26,7.24-7.26Z"/>
  <rect class="st0" x="565.51" y="507.24" width="64.07" height="192.52" rx="6.89" ry="6.89"/>
  <rect class="st4" x="467.97" y="585.44" width="64.07" height="114.32" rx="6.89" ry="6.89"/>
  <path class="st3" d="M655.2,388.99s-.03,0-.04,0h0s.04,0,.04,0Z"/>
  <path class="st3" d="M655.2,388.99s-.03,0-.04,0h0s.04,0,.04,0Z"/>
</svg>